<svg xmlns="http://www.w3.org/2000/svg" width="95.798" height="90.442">
  <path fill="#9A1F61" d="M50.95 65.766c4.3-4.75 8.472-9.35 13.1-14.4l8.892 9.38c2.86-6.23-.885-16.5-8.23-21.6-10.2-7-22.8-8.36-35 4.16-3.19-3.56-6.35-7.08-9.92-11.1 10-10.6 19.9-21 29.9-31.7 10.2 10.6 20 20.9 30.3 31.7l6.88-7.19c12.8 15 13.3 49.4-15 65-7-8-14-15.9-21-24.3l.08.05z"/>
  <path fill="#EF486B" d="M22.95 65.165c4.3 5.68 8.32 11 12.6 16.7-.27.353-1.03 1.41-1.86 2.39-6.12 7.23-6.13 7.22-13.3 1.04-.124-.107-.25-.22-.372-.33-8.3-7.38-8.29-7.37-.845-15.4 1.5-1.6 2.5-3.3 3.5-4.4h.278z"/>
  <path fill="#ABD037" d="M31.95 43.865c-7.37 9.78-14.4 19.2-21.6 28.6-11.3-12.1-12.9-37.2-3.7-54.4 4.26 4.34 8.43 8.57 12.6 12.8 3.7 4.2 7.7 8.4 12.7 13z"/>
</svg>
